<svg width="32" height="40" viewBox="0 0 32 40" fill="none" xmlns="http://www.w3.org/2000/svg">
<g clip-path="url(#clip0_1971_1036)">
<path d="M5.7561 19.0717C5.44291 19.0717 5.18872 18.8039 5.18872 18.4741V8.05891C5.18872 7.72903 5.44291 7.4613 5.7561 7.4613C6.06929 7.4613 6.32347 7.72903 6.32347 8.05891V18.4741C6.32347 18.8039 6.06929 19.0717 5.7561 19.0717Z" fill="#28251F"/>
<path d="M27.9813 29.655C27.836 29.655 27.6908 29.5968 27.5803 29.4797C27.3586 29.2462 27.3586 28.8677 27.5803 28.6343L29.3702 26.749V21.2016C29.3702 20.8717 29.6244 20.604 29.9376 20.604C30.2508 20.604 30.5049 20.8717 30.5049 21.2016V26.8606C30.5049 27.1076 30.4134 27.3403 30.2477 27.5156L28.383 29.4797C28.2725 29.596 28.1265 29.655 27.982 29.655H27.9813Z" fill="#28251F"/>
<path d="M27.9813 27.098C26.9555 27.098 26.1211 27.9769 26.1211 29.0574C26.1211 30.1379 26.9555 31.0167 27.9813 31.0167C29.0071 31.0167 29.8416 30.1379 29.8416 29.0574C29.8416 27.9769 29.0071 27.098 27.9813 27.098Z" fill="#A3582D"/>
<path d="M11.6622 29.5514C10.2846 31.655 12.3446 38.0008 14.3493 39.3076C15.8305 40.2733 19.7038 40.2733 21.185 39.3076C23.189 38.0016 25.2497 31.655 23.8721 29.5514C22.0535 26.7745 13.4801 26.7745 11.6622 29.5514Z" fill="#FFA45A"/>
<path d="M23.872 29.5513C22.8515 27.9928 19.7045 27.3091 16.8169 27.5003C19.0751 27.6493 21.1736 28.333 21.9717 29.5513C23.3493 31.6549 21.2893 38.0007 19.2846 39.3075C18.721 39.6748 17.8102 39.9019 16.8169 39.9896C18.4328 40.1322 20.2681 39.9051 21.1849 39.3075C23.1897 38.0015 25.2496 31.6549 23.872 29.5513Z" fill="#E07B3C"/>
<path d="M22.53 28.4295C20.0593 27.149 15.4742 27.149 13.0034 28.4295L14.347 33.0207C14.8099 34.6008 16.1966 35.6797 17.7663 35.6797C19.3368 35.6797 20.7235 34.6016 21.1857 33.0207L22.5293 28.4295H22.53Z" fill="#FFB987"/>
<path opacity="0.5" d="M22.1208 29.8271L22.5301 28.4294C20.918 27.5944 18.6235 27.3816 16.8215 27.5004C18.5759 27.6167 21.3734 28.1832 22.1216 29.8271H22.1208Z" fill="#28251F"/>
<path d="M30.0232 17.808H26.3496V22.0853H30.0232C30.7002 22.0853 31.2495 21.5068 31.2495 20.7936V19.0996C31.2495 18.3865 30.7002 17.808 30.0232 17.808Z" fill="#FFA45A"/>
<path d="M26.3496 22.086H29.6434C29.8363 20.7474 29.8855 19.2565 29.8 17.8087H26.3496V22.086Z" fill="#E07B3C"/>
<path d="M5.51022 17.808H9.18379V22.0853H5.51022C4.83316 22.0853 4.28394 21.5068 4.28394 20.7936V19.0996C4.28394 18.3865 4.83316 17.808 5.51022 17.808Z" fill="#FFA45A"/>
<path d="M8.75942 11.51C6.45057 14.1076 6.21908 23.8964 8.75942 26.2056C12.2628 29.3897 23.2714 29.3897 26.7747 26.2056C29.3151 23.8964 29.0836 14.1084 26.7747 11.51C23.5899 7.9275 11.9443 7.9275 8.75942 11.51Z" fill="#FBF5EC"/>
<path d="M26.7739 11.51C25.0339 9.55224 20.7673 8.6646 16.7351 8.84627C20.0819 8.99687 23.2667 9.88531 24.7109 11.51C27.0197 14.1076 27.2512 23.8965 24.7109 26.2056C23.126 27.6471 20.0032 28.4359 16.7351 28.5722C20.6886 28.7379 24.8561 27.9491 26.7739 26.2056C29.3142 23.8965 29.0827 14.1084 26.7739 11.51Z" fill="#B79C86"/>
<path d="M9.58691 19.1466V19.8645C9.58691 22.3099 11.4691 24.2916 13.79 24.2916H21.7424C24.0641 24.2916 25.9455 22.3091 25.9455 19.8645V19.1466C25.9455 16.7012 24.0633 14.7195 21.7424 14.7195H13.79C11.4683 14.7195 9.58691 16.702 9.58691 19.1466Z" fill="#FFE7CD"/>
<g clip-path="url(#clip1_1971_1036)">
<path d="M18.6322 20.6375C18.8799 20.6375 19.0484 20.8493 18.9581 21.0448C18.7666 21.4593 18.291 21.753 17.7343 21.753C17.1777 21.753 16.7025 21.4593 16.511 21.0448C16.4207 20.8493 16.5892 20.6375 16.8369 20.6375H18.6322Z" fill="#2E2E2E"/>
</g>
<path d="M11.2141 21.0685V20.3506C11.2141 17.9051 13.0963 15.9235 15.4173 15.9235H23.3696C23.9105 15.9235 24.4272 16.0326 24.9015 16.2278C24.1314 15.3035 23.002 14.7195 21.7424 14.7195H13.79C11.4683 14.7195 9.58691 16.702 9.58691 19.1466V19.8645C9.58691 21.7402 10.6944 23.3418 12.2581 23.9872C11.6083 23.2079 11.2141 22.1872 11.2141 21.0685Z" fill="#FFC899"/>
<path d="M21.635 21.2024C22.525 21.2024 23.2464 20.4425 23.2464 19.5052C23.2464 18.5678 22.525 17.808 21.635 17.808C20.7451 17.808 20.0237 18.5678 20.0237 19.5052C20.0237 20.4425 20.7451 21.2024 21.635 21.2024Z" fill="#2E2E2E"/>
<path d="M13.8982 21.2024C14.7881 21.2024 15.5096 20.4425 15.5096 19.5052C15.5096 18.5678 14.7881 17.808 13.8982 17.808C13.0083 17.808 12.2869 18.5678 12.2869 19.5052C12.2869 20.4425 13.0083 21.2024 13.8982 21.2024Z" fill="#2E2E2E"/>
<path d="M17.767 33.565C18.5746 33.565 19.2293 32.8754 19.2293 32.0247C19.2293 31.1741 18.5746 30.4845 17.767 30.4845C16.9594 30.4845 16.3047 31.1741 16.3047 32.0247C16.3047 32.8754 16.9594 33.565 17.767 33.565Z" fill="#F1E9E4"/>
<path d="M29.4217 0H17.0696C16.3834 0 15.8267 0.708366 15.8267 1.58167V6.15458C15.8267 7.02868 16.3827 7.73625 17.0696 7.73625H25.9562C25.9918 7.73625 26.0266 7.75538 26.0508 7.78805L28.318 10.8374C28.4807 11.0558 28.7696 10.91 28.7696 10.6088V7.90279C28.7696 7.81115 28.8279 7.73625 28.9005 7.73625H29.4217C30.1079 7.73625 30.6647 7.02789 30.6647 6.15458V1.58167C30.6647 0.708366 30.1086 0 29.4217 0Z" fill="#80C1D6"/>
<path d="M29.4217 0H28.1704C28.8566 0 29.4133 0.708366 29.4133 1.58167V6.15458C29.4133 7.02868 28.8573 7.73625 28.1704 7.73625H27.6492C27.5773 7.73625 27.5183 7.81036 27.5183 7.90279V9.76175L28.3179 10.8374C28.4806 11.0558 28.7696 10.91 28.7696 10.6088V7.90279C28.7696 7.81115 28.8278 7.73625 28.9004 7.73625H29.4217C30.1078 7.73625 30.6646 7.02789 30.6646 6.15458V1.58167C30.6646 0.708366 30.1086 0 29.4217 0Z" fill="#467A8F"/>
<path d="M19.3851 4.33072H19.084C18.8245 4.33072 18.615 4.06299 18.615 3.73311C18.615 3.40323 18.8253 3.1355 19.084 3.1355H19.3851C19.6446 3.1355 19.8541 3.40323 19.8541 3.73311C19.8541 4.06299 19.6438 4.33072 19.3851 4.33072Z" fill="#FFFEFB"/>
<path d="M22.0594 4.33072H21.7583C21.4989 4.33072 21.2893 4.06299 21.2893 3.73311C21.2893 3.40323 21.4996 3.1355 21.7583 3.1355H22.0594C22.3189 3.1355 22.5285 3.40323 22.5285 3.73311C22.5285 4.06299 22.3182 4.33072 22.0594 4.33072Z" fill="#FFFEFB"/>
<path d="M24.7335 4.33072H24.4324C24.1729 4.33072 23.9634 4.06299 23.9634 3.73311C23.9634 3.40323 24.1737 3.1355 24.4324 3.1355H24.7335C24.993 3.1355 25.2025 3.40323 25.2025 3.73311C25.2025 4.06299 24.9922 4.33072 24.7335 4.33072Z" fill="#FFFEFB"/>
<path d="M27.4078 4.33072H27.1067C26.8472 4.33072 26.6377 4.06299 26.6377 3.73311C26.6377 3.40323 26.848 3.1355 27.1067 3.1355H27.4078C27.6673 3.1355 27.8768 3.40323 27.8768 3.73311C27.8768 4.06299 27.6665 4.33072 27.4078 4.33072Z" fill="#FFFEFB"/>
<path d="M5.97329 1.63794L0.5 15.9264C0.5 15.9264 3.07437 18.5973 12.017 13.5734C20.9596 8.54949 20.2878 4.81005 20.2878 4.81005L5.97329 1.63794Z" fill="#FFA45A"/>
<path d="M12.0751 13.5925L12.0366 13.614C11.6795 13.8148 11.3088 14.014 10.8708 14.2419L10.8292 14.2634L10.8118 14.218L5.93311 1.65543L6.01102 1.61719L12.0751 13.5933V13.5925ZM10.8738 14.1391C11.2778 13.9287 11.6243 13.7415 11.9579 13.555L6.33329 2.44747L10.8738 14.1391Z" fill="#E07B3C"/>
<path d="M8.69446 15.2762L8.66117 15.2905C8.25039 15.465 7.85777 15.6212 7.49389 15.7542L7.4432 15.7726L5.92944 1.64349L6.01417 1.62915L8.6937 15.2762H8.69446ZM7.51734 15.6491C7.8555 15.5248 8.21786 15.3805 8.59611 15.2196L6.12084 2.61799L7.51658 15.6491H7.51734Z" fill="#E07B3C"/>
<path d="M10.9064 14.2235L10.8708 14.2426C10.4858 14.4426 10.1401 14.6147 9.814 14.7701L9.76937 14.7916L9.755 14.7422L5.93164 1.65137L6.01259 1.62109L10.9064 14.2235ZM9.82308 14.6657C10.1249 14.5215 10.4442 14.3613 10.7967 14.1789L6.29627 2.59082L9.82308 14.6657Z" fill="#E07B3C"/>
<path d="M6.29931 16.1486L6.26678 16.1582C5.80834 16.292 5.36806 16.4012 4.95879 16.4809L4.90356 16.492L5.93014 1.63464L6.01638 1.63703L6.29931 16.1486ZM4.99737 16.3813C5.3794 16.3048 5.78716 16.2036 6.21156 16.0809L5.94905 2.61393L4.99813 16.3813H4.99737Z" fill="#E07B3C"/>
<path d="M9.84883 14.7534L9.81403 14.7701C9.43502 14.9518 9.05753 15.1215 8.66112 15.2905L8.6127 15.3104L8.60211 15.257L5.93091 1.64743L6.01412 1.62512L9.84883 14.7542V14.7534ZM8.67701 15.1853C9.0424 15.0291 9.39266 14.8705 9.74443 14.7032L6.19947 2.56935L8.67701 15.1853Z" fill="#E07B3C"/>
<path d="M7.52717 15.7414L7.49464 15.7534C7.07706 15.9056 6.66401 16.0418 6.26684 16.1582L6.21313 16.1741V16.1159L5.92944 1.63943L6.01568 1.63306L7.52642 15.7422L7.52717 15.7414ZM6.2971 16.0554C6.66552 15.9462 7.0468 15.8203 7.43337 15.6801L7.04226 12.0267L6.03535 2.62668L6.29786 16.0554H6.2971Z" fill="#E07B3C"/>
<path d="M2.41226 16.649L2.37519 16.645C1.93491 16.5996 1.5385 16.5096 1.19732 16.3789L1.15723 16.3638L1.17084 16.3215L5.93151 1.62354L6.01396 1.64903L2.41226 16.649ZM1.26616 16.308C1.58162 16.4243 1.94474 16.5064 2.34645 16.5502L5.66976 2.71357L1.26616 16.308Z" fill="#E07B3C"/>
<path d="M1.23827 16.394L1.19742 16.3781C0.690567 16.1836 0.47799 15.9669 0.469668 15.9581L0.448486 15.9366L0.459077 15.9087L5.93312 1.62109L6.01406 1.65297L1.23827 16.394ZM0.550614 15.9135C0.612647 15.9685 0.812363 16.1279 1.18532 16.2769L5.42324 3.1948L0.550614 15.9135Z" fill="#E07B3C"/>
<path d="M4.99136 16.4746L4.95883 16.4809C4.4497 16.5805 3.95873 16.6435 3.49878 16.6674L3.44507 16.6706L3.45415 16.6148L5.93017 1.63074L6.01566 1.64189L4.99136 16.4754V16.4746ZM3.54795 16.5742C3.9784 16.5487 4.43684 16.4897 4.91041 16.3989L5.86738 2.54309L3.54795 16.5742Z" fill="#E07B3C"/>
<path d="M3.53282 16.6658L3.49877 16.6673C3.09934 16.6889 2.72109 16.6809 2.37537 16.645L2.32544 16.6403L5.93092 1.62671L6.0149 1.64504L3.53206 16.665L3.53282 16.6658ZM2.43362 16.5598C2.75135 16.5901 3.09631 16.5964 3.45943 16.5789L5.73423 2.81715L2.43362 16.5598Z" fill="#E07B3C"/>
<path d="M17.2322 10.007L17.205 9.98625L5.94824 1.67549L5.99439 1.599L18.2807 8.97749L18.2414 9.01972C17.9501 9.33286 17.6195 9.65796 17.2579 9.98466L17.233 10.0078L17.2322 10.007ZM6.75543 2.16075L17.2277 9.89223C17.5613 9.58944 17.8677 9.28904 18.1408 8.9982L6.75543 2.16075Z" fill="#E07B3C"/>
<path d="M19.181 7.87538L19.1492 7.86025L5.95508 1.67937L5.98761 1.5957L19.8331 6.80447L19.8096 6.85068C19.6462 7.1726 19.4412 7.50726 19.2022 7.8459L19.1817 7.87459L19.181 7.87538ZM7.03536 2.08654L19.153 7.76303C19.3694 7.45467 19.5562 7.14949 19.7098 6.85467L7.03536 2.08654Z" fill="#E07B3C"/>
<path d="M19.7914 6.88575L19.7558 6.8722L5.95801 1.68097L5.98373 1.59412L20.265 5.62918L20.2551 5.6722C20.1689 6.04272 20.0191 6.43874 19.8095 6.85069L19.7921 6.88495L19.7914 6.88575ZM6.98912 1.9726L19.7505 6.7734C19.9397 6.39651 20.0781 6.03316 20.1613 5.69372L6.98912 1.9726Z" fill="#E07B3C"/>
<path d="M18.2178 9.0443L18.1891 9.02677L5.95117 1.67777L5.98975 1.59729L19.2331 7.80048L19.2005 7.8459C18.9259 8.23394 18.6021 8.62916 18.2398 9.0196L18.2163 9.0451L18.2178 9.0443ZM6.74474 2.04908L18.2027 8.93036C18.5386 8.56621 18.8404 8.19888 19.0999 7.83633L6.74474 2.04908Z" fill="#E07B3C"/>
<path d="M20.2447 5.71756L20.2023 5.70561L5.96191 1.68171L5.98234 1.59326L20.3248 4.77095L20.3301 4.80123C20.3324 4.81398 20.3839 5.11995 20.2552 5.67215L20.2447 5.71677V5.71756ZM7.50593 2.02434L20.1811 5.60521C20.2711 5.19565 20.2568 4.9327 20.2484 4.84744L7.50593 2.02434Z" fill="#E07B3C"/>
<path d="M13.1472 12.9646L13.1245 12.9296L5.93701 1.66344L6.00661 1.60925L14.229 12.2857L14.1874 12.3128C13.8833 12.5112 13.5542 12.7176 13.1828 12.9431L13.148 12.9638L13.1472 12.9646ZM6.54373 2.45148L13.1737 12.8435C13.5134 12.6371 13.8175 12.4467 14.0997 12.2634L6.54373 2.45148Z" fill="#E07B3C"/>
<path d="M16.2277 10.854L16.2012 10.8309L5.94458 1.67315L5.99753 1.60144L17.2997 9.94646L17.2573 9.98471C16.9456 10.2668 16.6082 10.552 16.2542 10.8333L16.2269 10.8548L16.2277 10.854ZM6.71697 2.24287L16.23 10.7377C16.5568 10.4779 16.8685 10.2142 17.159 9.95284L6.71697 2.24287Z" fill="#E07B3C"/>
<path d="M12.0365 13.614L11.9987 13.6355L5.93457 1.65944L6.00871 1.61243L13.2219 12.9192L13.1819 12.9439C12.7582 13.2005 12.3943 13.4132 12.0365 13.614ZM6.40965 2.40446L12.0342 13.512C12.3671 13.3248 12.7075 13.1256 13.0986 12.8897L6.40965 2.40446Z" fill="#E07B3C"/>
<path d="M14.1548 12.3342L14.1306 12.3032L5.93921 1.66651L6.00351 1.60596L15.2812 11.5637L15.2389 11.5948C14.8856 11.8474 14.5414 12.0825 14.1866 12.3135L14.1548 12.3342ZM6.58072 2.35576L14.1737 12.2155C14.5013 12.0012 14.8205 11.7836 15.1481 11.551L6.58072 2.35576Z" fill="#E07B3C"/>
<path d="M15.2093 11.6164L15.1836 11.5893L5.94214 1.66977L6.00115 1.60364L16.2986 10.7981L16.2555 10.8323C15.9469 11.0769 15.6057 11.3335 15.2395 11.5949L15.21 11.6156L15.2093 11.6164ZM6.66233 2.3136L15.2199 11.4985C15.5565 11.2578 15.872 11.0204 16.1594 10.7933L6.66233 2.3136Z" fill="#E07B3C"/>
<path d="M16.6958 27.6509C16.6617 28.0063 16.5899 28.3577 16.4817 28.6971C16.8993 28.9736 17.3842 29.129 17.8767 29.1632C17.8373 28.8501 17.8093 28.5345 17.7912 28.2198C17.7768 27.972 17.593 27.772 17.3577 27.7513C17.1353 27.7322 16.9144 27.6987 16.6958 27.6509Z" fill="#F68D45"/>
<path d="M19.6468 28.5194C19.5197 28.2046 19.3926 27.8891 19.2655 27.5743C18.9985 27.65 18.7262 27.7026 18.4515 27.7345C18.2284 27.76 18.065 27.9656 18.0884 28.1998C18.121 28.5225 18.1875 28.8453 18.2662 29.1648C18.7216 29.1377 19.171 29.0086 19.5674 28.7712C19.6097 28.7457 19.6551 28.7154 19.6695 28.6668C19.6846 28.6182 19.665 28.5664 19.6461 28.5194H19.6468Z" fill="#F68D45"/>
</g>
<defs>
<clipPath id="clip0_1971_1036">
<rect width="32" height="40" fill="white"/>
</clipPath>
<clipPath id="clip1_1971_1036">
<rect width="4.00946" height="1.75299" fill="white" transform="translate(15.7297 20.6375)"/>
</clipPath>
</defs>
</svg>
